<mxfile host="app.diagrams.net" modified="2021-03-02T03:50:59.792Z" agent="5.0 (Windows NT 10.0; Win64; x64) AppleWebKit/537.36 (KHTML, like Gecko) Chrome/88.0.4324.190 Safari/537.36" etag="I3owJgeHgjxubf6fYD6o" version="14.4.3" type="github">
  <diagram name="Page-1" id="822b0af5-4adb-64df-f703-e8dfc1f81529">
    <mxGraphModel dx="1422" dy="1682" grid="1" gridSize="10" guides="1" tooltips="1" connect="1" arrows="1" fold="1" page="1" pageScale="1" pageWidth="1100" pageHeight="850" background="#ffffff" math="0" shadow="0">
      <root>
        <mxCell id="0" />
        <mxCell id="1" parent="0" />
        <mxCell id="kfV9qZvkOob6S_yp_PKA-1" value="" style="rounded=0;whiteSpace=wrap;html=1;strokeWidth=5;" vertex="1" parent="1">
          <mxGeometry x="400" y="40" width="670" height="640" as="geometry" />
        </mxCell>
        <mxCell id="kfV9qZvkOob6S_yp_PKA-7" value="" style="rounded=0;whiteSpace=wrap;html=1;strokeWidth=5;" vertex="1" parent="1">
          <mxGeometry x="430" y="110" width="600" height="540" as="geometry" />
        </mxCell>
        <mxCell id="XoekwUV7jLwuCPAW35P8-3" value="" style="verticalLabelPosition=bottom;html=1;verticalAlign=top;align=center;strokeColor=none;fillColor=#00BEF2;shape=mxgraph.azure.computer;pointerEvents=1;" parent="1" vertex="1">
          <mxGeometry x="290" y="365" width="50" height="45" as="geometry" />
        </mxCell>
        <mxCell id="XoekwUV7jLwuCPAW35P8-4" value="" style="endArrow=classic;html=1;" parent="1" edge="1">
          <mxGeometry width="50" height="50" relative="1" as="geometry">
            <mxPoint x="314.5" y="360" as="sourcePoint" />
            <mxPoint x="314.5" y="280" as="targetPoint" />
            <Array as="points" />
          </mxGeometry>
        </mxCell>
        <mxCell id="XoekwUV7jLwuCPAW35P8-7" style="edgeStyle=orthogonalEdgeStyle;rounded=0;orthogonalLoop=1;jettySize=auto;html=1;" parent="1" source="XoekwUV7jLwuCPAW35P8-5" edge="1">
          <mxGeometry relative="1" as="geometry">
            <mxPoint x="520" y="260" as="targetPoint" />
          </mxGeometry>
        </mxCell>
        <mxCell id="XoekwUV7jLwuCPAW35P8-5" value="" style="outlineConnect=0;dashed=0;verticalLabelPosition=bottom;verticalAlign=top;align=center;html=1;shape=mxgraph.aws3.internet;fillColor=#D2D3D3;gradientColor=none;" parent="1" vertex="1">
          <mxGeometry x="275.25" y="220" width="79.5" height="79.5" as="geometry" />
        </mxCell>
        <mxCell id="XoekwUV7jLwuCPAW35P8-8" value="" style="aspect=fixed;html=1;points=[];align=center;image;fontSize=12;image=img/lib/azure2/networking/Network_Security_Groups.svg;" parent="1" vertex="1">
          <mxGeometry x="522" y="225.75" width="56.00000000000001" height="68" as="geometry" />
        </mxCell>
        <mxCell id="XoekwUV7jLwuCPAW35P8-31" style="edgeStyle=orthogonalEdgeStyle;rounded=0;orthogonalLoop=1;jettySize=auto;html=1;exitX=0;exitY=1;exitDx=0;exitDy=0;exitPerimeter=0;entryX=0.48;entryY=0.022;entryDx=0;entryDy=0;entryPerimeter=0;" parent="1" source="XoekwUV7jLwuCPAW35P8-9" target="XoekwUV7jLwuCPAW35P8-10" edge="1">
          <mxGeometry relative="1" as="geometry" />
        </mxCell>
        <mxCell id="XoekwUV7jLwuCPAW35P8-33" style="edgeStyle=orthogonalEdgeStyle;rounded=0;orthogonalLoop=1;jettySize=auto;html=1;exitX=1;exitY=1;exitDx=0;exitDy=0;exitPerimeter=0;entryX=0.52;entryY=-0.065;entryDx=0;entryDy=0;entryPerimeter=0;" parent="1" source="XoekwUV7jLwuCPAW35P8-9" target="XoekwUV7jLwuCPAW35P8-12" edge="1">
          <mxGeometry relative="1" as="geometry" />
        </mxCell>
        <mxCell id="XoekwUV7jLwuCPAW35P8-42" style="edgeStyle=orthogonalEdgeStyle;rounded=0;orthogonalLoop=1;jettySize=auto;html=1;entryX=0.46;entryY=-0.065;entryDx=0;entryDy=0;entryPerimeter=0;" parent="1" source="XoekwUV7jLwuCPAW35P8-9" target="XoekwUV7jLwuCPAW35P8-11" edge="1">
          <mxGeometry relative="1" as="geometry" />
        </mxCell>
        <mxCell id="XoekwUV7jLwuCPAW35P8-9" value="" style="points=[[0,0,0],[0.25,0,0],[0.5,0,0],[0.75,0,0],[1,0,0],[0,1,0],[0.25,1,0],[0.5,1,0],[0.75,1,0],[1,1,0],[0,0.25,0],[0,0.5,0],[0,0.75,0],[1,0.25,0],[1,0.5,0],[1,0.75,0]];outlineConnect=0;fontColor=#232F3E;gradientColor=#F78E04;gradientDirection=north;fillColor=#D05C17;strokeColor=#ffffff;dashed=0;verticalLabelPosition=bottom;verticalAlign=top;align=center;html=1;fontSize=12;fontStyle=0;aspect=fixed;shape=mxgraph.aws4.resourceIcon;resIcon=mxgraph.aws4.elastic_load_balancing;" parent="1" vertex="1">
          <mxGeometry x="734" y="215.75" width="74.25" height="74.25" as="geometry" />
        </mxCell>
        <mxCell id="XoekwUV7jLwuCPAW35P8-10" value="" style="aspect=fixed;html=1;points=[];align=center;image;fontSize=12;image=img/lib/mscae/Virtual_Machine.svg;" parent="1" vertex="1">
          <mxGeometry x="670" y="410" width="50" height="46" as="geometry" />
        </mxCell>
        <mxCell id="XoekwUV7jLwuCPAW35P8-11" value="" style="aspect=fixed;html=1;points=[];align=center;image;fontSize=12;image=img/lib/mscae/Virtual_Machine.svg;" parent="1" vertex="1">
          <mxGeometry x="748" y="410" width="50" height="46" as="geometry" />
        </mxCell>
        <mxCell id="XoekwUV7jLwuCPAW35P8-12" value="" style="aspect=fixed;html=1;points=[];align=center;image;fontSize=12;image=img/lib/mscae/Virtual_Machine.svg;" parent="1" vertex="1">
          <mxGeometry x="830" y="410" width="50" height="46" as="geometry" />
        </mxCell>
        <mxCell id="XoekwUV7jLwuCPAW35P8-13" value="" style="aspect=fixed;html=1;points=[];align=center;image;fontSize=12;image=img/lib/mscae/Virtual_Machine_2.svg;" parent="1" vertex="1">
          <mxGeometry x="525" y="370" width="50" height="46" as="geometry" />
        </mxCell>
        <mxCell id="XoekwUV7jLwuCPAW35P8-14" value="&lt;font style=&quot;font-size: 20px&quot;&gt;Private IP&lt;/font&gt;" style="text;html=1;strokeColor=none;fillColor=none;align=center;verticalAlign=middle;whiteSpace=wrap;rounded=0;spacing=5;strokeWidth=5;" parent="1" vertex="1">
          <mxGeometry x="295" y="423" width="40" height="20" as="geometry" />
        </mxCell>
        <mxCell id="XoekwUV7jLwuCPAW35P8-15" value="" style="shape=image;html=1;verticalAlign=top;verticalLabelPosition=bottom;labelBackgroundColor=#ffffff;imageAspect=0;aspect=fixed;image=https://cdn1.iconfinder.com/data/icons/social-media-glossy/512/136-adobe_social-128.png" parent="1" vertex="1">
          <mxGeometry x="739.5" y="540" width="67" height="67" as="geometry" />
        </mxCell>
        <mxCell id="XoekwUV7jLwuCPAW35P8-17" value="" style="endArrow=classic;html=1;entryX=0;entryY=0.5;entryDx=0;entryDy=0;" parent="1" target="XoekwUV7jLwuCPAW35P8-15" edge="1">
          <mxGeometry width="50" height="50" relative="1" as="geometry">
            <mxPoint x="550" y="423" as="sourcePoint" />
            <mxPoint x="600" y="373" as="targetPoint" />
            <Array as="points">
              <mxPoint x="550" y="574" />
            </Array>
          </mxGeometry>
        </mxCell>
        <mxCell id="XoekwUV7jLwuCPAW35P8-21" value="&lt;font style=&quot;font-size: 20px&quot;&gt;Ansible&lt;br&gt;Container&lt;/font&gt;" style="text;html=1;strokeColor=none;fillColor=none;align=center;verticalAlign=middle;whiteSpace=wrap;rounded=0;" parent="1" vertex="1">
          <mxGeometry x="729.5" y="597" width="87" height="63" as="geometry" />
        </mxCell>
        <mxCell id="XoekwUV7jLwuCPAW35P8-32" value="" style="endArrow=classic;html=1;" parent="1" target="XoekwUV7jLwuCPAW35P8-9" edge="1">
          <mxGeometry width="50" height="50" relative="1" as="geometry">
            <mxPoint x="570" y="254" as="sourcePoint" />
            <mxPoint x="630" y="208.63" as="targetPoint" />
          </mxGeometry>
        </mxCell>
        <mxCell id="XoekwUV7jLwuCPAW35P8-34" value="&lt;font style=&quot;font-size: 20px&quot;&gt;Internet&lt;/font&gt;" style="text;html=1;strokeColor=none;fillColor=none;align=center;verticalAlign=middle;whiteSpace=wrap;rounded=0;" parent="1" vertex="1">
          <mxGeometry x="264.75" y="171.5" width="90" height="54.25" as="geometry" />
        </mxCell>
        <mxCell id="XoekwUV7jLwuCPAW35P8-35" value="&lt;font style=&quot;font-size: 20px&quot;&gt;Security Group&lt;br&gt;&lt;/font&gt;" style="text;html=1;strokeColor=none;fillColor=none;align=center;verticalAlign=middle;whiteSpace=wrap;rounded=0;" parent="1" vertex="1">
          <mxGeometry x="530" y="188.63" width="40" height="20" as="geometry" />
        </mxCell>
        <mxCell id="XoekwUV7jLwuCPAW35P8-36" value="" style="endArrow=classic;html=1;entryX=0.48;entryY=0.022;entryDx=0;entryDy=0;entryPerimeter=0;" parent="1" target="XoekwUV7jLwuCPAW35P8-13" edge="1">
          <mxGeometry width="50" height="50" relative="1" as="geometry">
            <mxPoint x="550" y="293.75" as="sourcePoint" />
            <mxPoint x="550" y="350" as="targetPoint" />
            <Array as="points" />
          </mxGeometry>
        </mxCell>
        <mxCell id="XoekwUV7jLwuCPAW35P8-38" value="&lt;font style=&quot;font-size: 20px&quot;&gt;Jump Box Provisioner&lt;br&gt;&lt;/font&gt;" style="text;html=1;strokeColor=none;fillColor=none;align=center;verticalAlign=middle;whiteSpace=wrap;rounded=0;" parent="1" vertex="1">
          <mxGeometry x="522" y="436" width="40" height="20" as="geometry" />
        </mxCell>
        <mxCell id="XoekwUV7jLwuCPAW35P8-40" value="&lt;font style=&quot;font-size: 20px&quot;&gt;Load Balancer&lt;br&gt;&lt;/font&gt;" style="text;html=1;strokeColor=none;fillColor=none;align=center;verticalAlign=middle;whiteSpace=wrap;rounded=0;" parent="1" vertex="1">
          <mxGeometry x="721.13" y="160" width="100" height="60" as="geometry" />
        </mxCell>
        <mxCell id="XoekwUV7jLwuCPAW35P8-44" value="&lt;font style=&quot;font-size: 16px&quot;&gt;&lt;b&gt;Web1&lt;/b&gt;&lt;br&gt;&lt;br&gt;&lt;span style=&quot;color: rgb(255 , 255 , 255) ; background-color: rgb(0 , 0 , 0)&quot;&gt;10.0.0.5&lt;/span&gt;&lt;/font&gt;" style="text;html=1;strokeColor=none;fillColor=none;align=center;verticalAlign=middle;whiteSpace=wrap;rounded=0;" parent="1" vertex="1">
          <mxGeometry x="659.5" y="456" width="70" height="50" as="geometry" />
        </mxCell>
        <mxCell id="XoekwUV7jLwuCPAW35P8-46" value="&lt;font style=&quot;font-size: 16px&quot;&gt;&lt;b&gt;Web2&lt;/b&gt;&lt;br&gt;&lt;br&gt;&lt;span style=&quot;color: rgb(255 , 255 , 255) ; background-color: rgb(0 , 0 , 0)&quot;&gt;10.0.0.6&lt;/span&gt;&lt;/font&gt;" style="text;html=1;strokeColor=none;fillColor=none;align=center;verticalAlign=middle;whiteSpace=wrap;rounded=0;" parent="1" vertex="1">
          <mxGeometry x="737" y="456" width="70" height="50" as="geometry" />
        </mxCell>
        <mxCell id="XoekwUV7jLwuCPAW35P8-47" value="&lt;font style=&quot;font-size: 16px&quot;&gt;&lt;b&gt;Web3&lt;/b&gt;&lt;br&gt;&lt;br&gt;&lt;span style=&quot;color: rgb(255 , 255 , 255) ; background-color: rgb(0 , 0 , 0)&quot;&gt;10.0.0.7&lt;/span&gt;&lt;/font&gt;" style="text;html=1;strokeColor=none;fillColor=none;align=center;verticalAlign=middle;whiteSpace=wrap;rounded=0;" parent="1" vertex="1">
          <mxGeometry x="820" y="456" width="70" height="50" as="geometry" />
        </mxCell>
        <mxCell id="XoekwUV7jLwuCPAW35P8-49" value="" style="endArrow=classic;html=1;entryX=0.5;entryY=0;entryDx=0;entryDy=0;" parent="1" target="XoekwUV7jLwuCPAW35P8-44" edge="1">
          <mxGeometry width="50" height="50" relative="1" as="geometry">
            <mxPoint x="750" y="556" as="sourcePoint" />
            <mxPoint x="794" y="506" as="targetPoint" />
            <Array as="points">
              <mxPoint x="695" y="556" />
            </Array>
          </mxGeometry>
        </mxCell>
        <mxCell id="XoekwUV7jLwuCPAW35P8-50" value="" style="endArrow=classic;html=1;entryX=0.5;entryY=0;entryDx=0;entryDy=0;" parent="1" target="XoekwUV7jLwuCPAW35P8-46" edge="1">
          <mxGeometry width="50" height="50" relative="1" as="geometry">
            <mxPoint x="770" y="550" as="sourcePoint" />
            <mxPoint x="820" y="500" as="targetPoint" />
          </mxGeometry>
        </mxCell>
        <mxCell id="XoekwUV7jLwuCPAW35P8-51" value="" style="endArrow=classic;html=1;entryX=0.5;entryY=0;entryDx=0;entryDy=0;" parent="1" target="XoekwUV7jLwuCPAW35P8-47" edge="1">
          <mxGeometry width="50" height="50" relative="1" as="geometry">
            <mxPoint x="798" y="560" as="sourcePoint" />
            <mxPoint x="848" y="510" as="targetPoint" />
            <Array as="points">
              <mxPoint x="855" y="560" />
            </Array>
          </mxGeometry>
        </mxCell>
        <mxCell id="kfV9qZvkOob6S_yp_PKA-2" value="&lt;font style=&quot;font-size: 16px&quot;&gt;SSH&lt;/font&gt;" style="text;html=1;strokeColor=none;fillColor=none;align=center;verticalAlign=middle;whiteSpace=wrap;rounded=0;" vertex="1" parent="1">
          <mxGeometry x="710" y="530" width="40" height="20" as="geometry" />
        </mxCell>
        <mxCell id="kfV9qZvkOob6S_yp_PKA-3" value="&lt;font style=&quot;font-size: 16px&quot;&gt;SSH&lt;/font&gt;" style="text;html=1;strokeColor=none;fillColor=none;align=center;verticalAlign=middle;whiteSpace=wrap;rounded=0;" vertex="1" parent="1">
          <mxGeometry x="798" y="530" width="40" height="20" as="geometry" />
        </mxCell>
        <mxCell id="kfV9qZvkOob6S_yp_PKA-4" value="" style="aspect=fixed;html=1;points=[];align=center;image;fontSize=12;image=img/lib/azure2/general/Resource_Groups.svg;strokeWidth=5;" vertex="1" parent="1">
          <mxGeometry x="710" y="-70" width="68" height="64" as="geometry" />
        </mxCell>
        <mxCell id="kfV9qZvkOob6S_yp_PKA-5" value="&lt;font style=&quot;font-size: 19px&quot;&gt;Resource Group&lt;/font&gt;" style="text;html=1;strokeColor=none;fillColor=none;align=center;verticalAlign=middle;whiteSpace=wrap;rounded=0;" vertex="1" parent="1">
          <mxGeometry x="724" y="10" width="40" height="20" as="geometry" />
        </mxCell>
        <mxCell id="kfV9qZvkOob6S_yp_PKA-6" value="" style="aspect=fixed;html=1;points=[];align=center;image;fontSize=12;image=img/lib/azure2/networking/Virtual_Networks.svg;strokeWidth=5;" vertex="1" parent="1">
          <mxGeometry x="850" y="60" width="67" height="40" as="geometry" />
        </mxCell>
        <mxCell id="kfV9qZvkOob6S_yp_PKA-8" value="&lt;font style=&quot;font-size: 16px&quot;&gt;Virtual Network&lt;/font&gt;" style="text;html=1;strokeColor=none;fillColor=none;align=center;verticalAlign=middle;whiteSpace=wrap;rounded=0;" vertex="1" parent="1">
          <mxGeometry x="930" y="60" width="60" height="40" as="geometry" />
        </mxCell>
        <mxCell id="kfV9qZvkOob6S_yp_PKA-9" value="&lt;font style=&quot;font-size: 14px&quot;&gt;IPv4&lt;br&gt;10.0.0.0/16&lt;/font&gt;" style="text;html=1;strokeColor=none;fillColor=none;align=center;verticalAlign=middle;whiteSpace=wrap;rounded=0;" vertex="1" parent="1">
          <mxGeometry x="771.13" y="60" width="58.87" height="40" as="geometry" />
        </mxCell>
        <mxCell id="kfV9qZvkOob6S_yp_PKA-11" value="&lt;font style=&quot;font-size: 16px&quot;&gt;SSH&lt;/font&gt;" style="text;html=1;strokeColor=none;fillColor=none;align=center;verticalAlign=middle;whiteSpace=wrap;rounded=0;" vertex="1" parent="1">
          <mxGeometry x="264.75" y="310" width="40" height="20" as="geometry" />
        </mxCell>
        <mxCell id="kfV9qZvkOob6S_yp_PKA-12" value="&lt;font style=&quot;font-size: 16px&quot;&gt;SSH&lt;/font&gt;" style="text;html=1;strokeColor=none;fillColor=none;align=center;verticalAlign=middle;whiteSpace=wrap;rounded=0;" vertex="1" parent="1">
          <mxGeometry x="500" y="320" width="40" height="20" as="geometry" />
        </mxCell>
      </root>
    </mxGraphModel>
  </diagram>
</mxfile>
